<?xml version="1.0" standalone="no"?>
<!DOCTYPE svg PUBLIC "-//W3C//DTD SVG 20010904//EN"
 "http://www.w3.org/TR/2001/REC-SVG-20010904/DTD/svg10.dtd">
<svg version="1.0" xmlns="http://www.w3.org/2000/svg"
 width="700.000000pt" height="700.000000pt" viewBox="0 0 700.000000 700.000000"
 preserveAspectRatio="xMidYMid meet">
<metadata>
Created by potrace 1.11, written by Peter Selinger 2001-2013
</metadata>
<g transform="translate(0.000000,700.000000) scale(0.100000,-0.100000)"
fill="#000000" stroke="none">
<path d="M0 3500 l0 -3500 3500 0 3500 0 0 3500 0 3500 -3500 0 -3500 0 0
-3500z m5305 2440 c-11 -5 -681 -108 -1490 -230 -808 -121 -1480 -222 -1492
-225 l-23 -5 0 -1980 0 -1980 23 -5 c12 -3 684 -104 1492 -225 809 -122 1479
-225 1490 -230 12 -5 -741 -9 -1802 -9 l-1823 -1 0 2450 0 2450 1823 -1 c1061
0 1814 -4 1802 -9z m-2345 -2439 c0 -54 -2 -100 -5 -102 -2 -3 -107 3 -232 13
-125 9 -245 17 -265 17 l-38 1 0 70 0 70 43 1 c23 0 141 8 262 18 121 9 223
16 228 13 4 -2 7 -47 7 -101z"/>
</g>
</svg>
